<svg xmlns="http://www.w3.org/2000/svg"  viewBox="0 0 1000 1000" aria-hidden="true"
style="overflow: hidden;vertical-align: -0.15em;"><path d="M491.7 166.7A291.7 291.7 0 0 1 707.8 654.1 170.9 170.9 0 0 1 753.9 701C775.7 734.1 782.9 767 782.9 790.8A33.3 33.3 0 0 1 716.5 794.7L716.1 787.5 715.8 785.2 714.8 779.2 714.1 775.6A112.5 112.5 0 0 0 698.2 737.8 109.3 109.3 0 0 0 655 700 290.2 290.2 0 0 1 491.7 750C434.1 750 380.4 733.3 335.2 704.5 322.6 713.4 311.8 724.7 302.8 738.1 294 751 287.4 765.1 282.6 779.1L279.4 789.7 277.9 796.2A33.3 33.3 0 0 1 212.2 785.3C215.9 763.1 226.3 732.1 247.6 700.7 257.5 686 269.1 672.8 282.3 661.3A291.7 291.7 0 0 1 491.7 166.7ZM491.7 233.3A225 225 0 0 0 349.1 632.4C355.8 634.6 361.7 638.9 365.9 644.8A225 225 0 1 0 491.7 233.3ZM597.6 534A33.3 33.3 0 0 1 587.3 580L574 588.4C547.1 604.8 524.3 612.3 491.7 612.3 454.5 612.3 433.3 603.7 396 580A33.3 33.3 0 1 1 431.8 523.8L443.4 530.9C462.8 542.5 473.4 545.7 491.7 545.7 508.8 545.7 519.6 542.7 533.8 534.8L543 529.2 551.6 523.8A33.3 33.3 0 0 1 597.6 534Z"/></svg>