<svg xmlns="http://www.w3.org/2000/svg"  viewBox="0 0 1000 1000" aria-hidden="true"
style="overflow: hidden;vertical-align: -0.15em;"><path d="M244 243.1A33.3 33.3 0 0 1 291.1 243.1L483.6 435.6 676.1 243.1A33.3 33.3 0 0 1 723.2 243.1L724.1 244A33.3 33.3 0 0 1 724.1 291.1L531.6 483.6 724.1 676.1A33.3 33.3 0 0 1 726.9 720.1L724.1 723.2 723.2 724.1A33.3 33.3 0 0 1 676.1 724.1L483.6 531.6 291.1 724.1A33.3 33.3 0 0 1 244 724.1L243.1 723.2A33.3 33.3 0 0 1 243.1 676.1L435.6 483.6 243.1 291.1A33.3 33.3 0 0 1 240.3 247.1L243.1 244 244 243.1H244Z"/></svg>