<svg xmlns="http://www.w3.org/2000/svg"  viewBox="0 0 1000 1000" aria-hidden="true"
style="overflow: hidden;vertical-align: -0.15em;"><path d="M499.7 149.3A125.7 125.7 0 0 1 626.4 267.3L626.6 272.3H808.7A33.3 33.3 0 0 1 812.6 338.8L808.7 339H780.3L780.3 683A133.3 133.3 0 0 1 653.7 816.2L647 816.3H353.7A133.3 133.3 0 0 1 220.5 689.7L220.3 683 220.3 339H193.3A33.3 33.3 0 0 1 189.4 272.6L193.3 272.3H375.3A125.8 125.8 0 0 1 486.5 150.2L493.1 149.6 499.6 149.3ZM713.6 339H287L287 683A66.7 66.7 0 0 0 348.7 749.5L353.7 749.7H647A66.7 66.7 0 0 0 713.5 688L713.7 683 713.6 339ZM425 441.7A33.3 33.3 0 0 1 458.1 471.1L458.3 475V628.7A33.3 33.3 0 0 1 391.9 632.6L391.7 628.7V475A33.3 33.3 0 0 1 425 441.7ZM579 441.7A33.3 33.3 0 0 1 612.1 471.1L612.3 475V628.7A33.3 33.3 0 0 1 545.9 632.6L545.7 628.7V475A33.3 33.3 0 0 1 579 441.7ZM500.4 216L496.8 216.1A59 59 0 0 0 442.2 269.9L442.1 272.3H559.9L559.7 269.1A59 59 0 0 0 550 242.1L546.5 237.4 542.5 233.1A59 59 0 0 0 506.2 216.2L500.4 216Z"/></svg>