<svg xmlns="http://www.w3.org/2000/svg"  viewBox="0 0 1000 1000" aria-hidden="true"
style="overflow: hidden;vertical-align: -0.15em;"><path d="M856.3 810.9A18.8 18.8 0 0 1 875 829.7V867.2A18.8 18.8 0 0 1 856.3 885.9H143.8A18.8 18.8 0 0 1 125 867.2V829.7A18.8 18.8 0 0 1 143.8 810.9H856.3ZM591.3 133.8L593.8 136 722.5 265.4A37.5 37.5 0 0 1 722.4 318.4L708.6 332.2 708.8 332.5 305.4 735.9H162.5A37.5 37.5 0 0 1 125.1 701.1L125 698.4V555.4L514.6 162.8 514.3 162.4 540.7 136A37.5 37.5 0 0 1 591.3 133.8ZM458.1 325.1L201.2 587V587.1L273.8 659.7H273.9L533.1 400.2 458.1 325.2ZM566.3 214.8L510.5 271.6 586.1 347.1 642.1 291.1 566.3 214.8Z"/></svg>