<svg xmlns="http://www.w3.org/2000/svg"  viewBox="0 0 1000 1000" aria-hidden="true"
style="overflow: hidden;vertical-align: -0.15em;"><path d="M468.2 748.9C589.4 748.9 701.6 671.8 805.6 505.1 704.2 339.1 592.3 262.5 468.1 262.5 344.1 262.5 232.6 339.1 131.9 505.2 235.3 671.9 347 748.9 468.2 748.9ZM468.2 187.5C618.6 187.5 748.2 279.5 856.7 463.4L863.3 474.9 870.3 487.3C876.6 498.7 876.6 512.6 870.1 523.9L862.6 536.9C750.1 728.1 618.6 823.6 468.2 823.6 320.6 823.6 191.6 731.8 81.3 547.9L76 538.9C74.1 535.8 71.9 532 69.4 527.4L67.3 523.8A37.4 37.4 0 0 1 67.1 487.4L73.4 476 76.8 470.1C185.4 281.7 315.9 187.5 468.2 187.5ZM468.8 355.9A149.7 149.7 0 1 0 468.8 655.3 149.7 149.7 0 0 0 468.8 355.9ZM468.8 430.8A74.8 74.8 0 1 1 468.8 580.4 74.8 74.8 0 0 1 468.8 430.8Z"/></svg>