<svg xmlns="http://www.w3.org/2000/svg"  viewBox="0 0 1000 1000" aria-hidden="true"
style="overflow: hidden;vertical-align: -0.15em;"><path d="M208.8 130.4L913.9 835.5A18.4 18.4 0 0 1 913.9 861.6L887.8 887.7A18.4 18.4 0 0 1 861.6 887.7L156.5 182.6A18.4 18.4 0 0 1 156.5 156.5L182.6 130.4A18.4 18.4 0 0 1 208.8 130.4ZM235.7 340.1L284 388.4A750.5 750.5 0 0 0 198.9 504.6C300.8 669.1 411.1 745.1 530.7 745.1A274.4 274.4 0 0 0 624.3 728.8L679.9 784.3A335.9 335.9 0 0 1 530.6 819C374.2 819 239.1 714.4 125 505.1 159.6 440 196.4 384.9 235.7 340.1ZM530.7 191.2C690.1 191.2 825.7 295.8 937.5 505.2 902.1 569.6 864.8 624.1 825.4 668.8L777.1 620.4A788.1 788.1 0 0 0 863.6 504.6C763.6 340.8 653.2 265.1 530.7 265.1 498.8 265.1 467.7 270.2 437.4 280.7L381.6 225A341.3 341.3 0 0 1 530.6 191.2ZM384.4 488.8L547.5 651.9A147.8 147.8 0 0 1 384.4 488.8ZM531.3 357.4A147.8 147.8 0 0 1 678.1 521.4L515 358.3C520.3 357.7 525.8 357.4 531.3 357.4Z"/></svg>