<svg xmlns="http://www.w3.org/2000/svg"  viewBox="0 0 1000 1000" aria-hidden="true"
style="overflow: hidden;vertical-align: -0.15em;"><path d="M511 166.8L500 166.7A332.5 332.5 0 0 0 264.3 264.3 332.3 332.3 0 0 0 166.7 500.1 332.3 332.3 0 0 0 264.3 735.8 332.3 332.3 0 0 0 500 833.3L721.7 829.7 722.5 797.7C723.3 762.8 729.8 741.5 735.7 735.7A332.4 332.4 0 0 0 833.3 500 332.3 332.3 0 0 0 735.7 264.3 332.3 332.3 0 0 0 511 166.9ZM500 233.3A265.7 265.7 0 0 1 688.5 311.4 265.8 265.8 0 0 1 766.7 500 265.8 265.8 0 0 1 688.6 688.6L684.7 692.8C672 707.8 663.3 730.1 659 758.8L658.3 764.1 505.1 766.7 499.2 766.7A265.3 265.3 0 0 1 311.5 688.6 265.8 265.8 0 0 1 233.3 500 265.8 265.8 0 0 1 311.4 311.4 265.8 265.8 0 0 1 500.1 233.3ZM637.4 456.9L660.9 480.5A33.3 33.3 0 1 1 613.8 527.6L590.2 504A33.3 33.3 0 1 1 637.4 456.9ZM504 456.9L527.6 480.5A33.3 33.3 0 1 1 480.5 527.6L456.9 504A33.3 33.3 0 1 1 504 456.9ZM370.7 456.9L394.3 480.5A33.3 33.3 0 1 1 347.1 527.6L323.6 504A33.3 33.3 0 1 1 370.7 456.9Z"/></svg>