<svg xmlns="http://www.w3.org/2000/svg"  viewBox="0 0 1000 1000" aria-hidden="true"
style="overflow: hidden;vertical-align: -0.15em;"><path d="M506.5 338.7C473.6 338.7 447.8 348 428.7 366.7 409.2 385.3 399.8 411.1 399.8 444H450.5C450.5 424.9 454.1 410.2 461.6 400 470.5 388 484.3 382.2 503.4 382.2 518.5 382.2 530.5 386.2 539 394.7 547 403.1 551.4 414.7 551.4 429.3 551.4 440.4 547.4 451.1 539.4 460.9L534.1 467.1C505.2 492.9 487.8 511.5 482.1 523.5 475.8 535.5 473.2 550.2 473.2 567.1V573.3H524.3V567.1C524.3 556.4 526.5 546.7 531 537.8 535 529.8 540.7 522.2 548.7 516 570.1 497.3 583 485.3 587 480.9 597.6 466.7 603.4 448.4 603.4 426.2 603.4 399.1 594.5 377.8 576.7 362.2 559 346.2 535.4 338.7 506.5 338.7ZM498.5 595.1A32.5 32.5 0 0 0 474.5 604.4C467.4 610.7 464.3 618.7 464.3 628.4S467.4 646.2 474.5 652.4A32.8 32.8 0 0 0 498.5 662.2C508.3 662.2 516.3 659.1 523.4 652.9 529.6 646.7 533.2 638.2 533.2 628.4A32.8 32.8 0 0 0 523.4 604.4 35.3 35.3 0 0 0 498.5 595.1ZM500 166.7C684.1 166.7 833.3 315.9 833.3 500S684.1 833.3 500 833.3 166.7 684.1 166.7 500 315.9 166.7 500 166.7ZM500 233.3A266.7 266.7 0 1 0 500 766.7 266.7 266.7 0 0 0 500 233.3Z"/></svg>