<svg xmlns="http://www.w3.org/2000/svg"  viewBox="0 0 1000 1000" aria-hidden="true"
style="overflow: hidden;vertical-align: -0.15em;"><path d="M215.9 547.3A33.3 33.3 0 0 1 249.3 580.6 172.3 172.3 0 0 0 421.4 752.3 33.3 33.3 0 0 1 421.3 819 239 239 0 0 1 182.7 580.8 33.3 33.3 0 0 1 215.9 547.3ZM787.8 547.3A33.3 33.3 0 0 1 821 580.8 239 239 0 0 1 582.8 819 33.3 33.3 0 0 1 582.6 752.3 172.3 172.3 0 0 0 754.3 580.6 33.3 33.3 0 0 1 787.8 547.3ZM622.3 463A33.3 33.3 0 0 1 626.2 529.4L622.3 529.7H381.7A33.3 33.3 0 0 1 377.8 463.2L381.7 463H622.3ZM582.8 181A239 239 0 0 1 821 419.2 33.3 33.3 0 0 1 754.3 419.4 172.3 172.3 0 0 0 582.6 247.7 33.3 33.3 0 0 1 582.8 181ZM421.3 181A33.3 33.3 0 0 1 421.4 247.7 172.3 172.3 0 0 0 249.3 419.4 33.3 33.3 0 0 1 182.7 419.2 239 239 0 0 1 421.3 181Z"/></svg>