<svg xmlns="http://www.w3.org/2000/svg"  viewBox="0 0 1000 1000" aria-hidden="true"
style="overflow: hidden;vertical-align: -0.15em;"><path d="M500 18.8A387.5 387.5 0 0 1 886.8 382.6 125.1 125.1 0 0 1 968.8 500V625A125 125 0 0 1 882.1 744 293.8 293.8 0 0 1 597.7 981.3 78.1 78.1 0 1 1 619.2 892.2 206.3 206.3 0 0 0 793.4 739.4 124.8 124.8 0 0 1 718.8 625V500A125 125 0 0 1 799.1 383.2 300 300 0 0 0 200.9 383.2 125 125 0 0 1 281.3 500V625A125 125 0 1 1 31.3 625V500A125 125 0 0 1 113.3 382.6 387.5 387.5 0 0 1 500 18.8ZM156.3 462.5A37.5 37.5 0 0 0 118.8 500V625A37.5 37.5 0 0 0 193.7 625V500A37.5 37.5 0 0 0 156.2 462.5ZM843.8 462.5A37.5 37.5 0 0 0 806.3 500V625A37.5 37.5 0 0 0 881.3 625V500A37.5 37.5 0 0 0 843.8 462.5Z"/></svg>