<svg xmlns="http://www.w3.org/2000/svg"  viewBox="0 0 1000 1000" aria-hidden="true"
style="overflow: hidden;vertical-align: -0.15em;"><path d="M500 102.3C529.5 102.3 558.6 105.5 586.9 111.9L603.3 115.6 654.2 231.8 779.7 218 791.1 230.4A397.8 397.8 0 0 1 878 381.6L882.9 397.5 873.1 410.9 808.3 500 882.9 602.5 878 618.4A397.8 397.8 0 0 1 791.1 769.6L779.7 781.9 654.2 768.2 603.3 884.4 586.9 888.1A395.4 395.4 0 0 1 413.1 888.1L396.7 884.4 390 869.1 345.8 768.3 220.3 782 208.9 769.6A397.8 397.8 0 0 1 122 618.4L117 602.5 126.9 589.1 191.8 500 117.1 397.5 122 381.6A397.8 397.8 0 0 1 208.9 230.4L220.3 218.1 345.8 231.8 396.7 115.6 413.1 111.9A395.3 395.3 0 0 1 500 102.3ZM500 168.6C481 168.6 462.2 170.2 443.8 173.4L402.9 266.5A54.3 54.3 0 0 1 347.3 298.6L246.9 287.6A331.5 331.5 0 0 0 190.5 385.7L250.5 468.1A54.3 54.3 0 0 1 250.5 531.9L190.5 614.3C203.6 650 222.7 683.2 246.9 712.4L347.4 701.4A54.3 54.3 0 0 1 403 733.5L443.7 826.6A330.3 330.3 0 0 0 556.2 826.6L597.1 733.5A54.3 54.3 0 0 1 652.7 701.4L753.1 712.4C777.3 683.2 796.4 650 809.5 614.3L749.5 531.9A54.3 54.3 0 0 1 749.5 468.1L809.5 385.7A331.4 331.4 0 0 0 753.1 287.6L652.6 298.6A54.3 54.3 0 0 1 597 266.5L556.3 173.4A330.1 330.1 0 0 0 500 168.6ZM500 334.2A165.4 165.4 0 0 1 665.1 500 165.4 165.4 0 0 1 500 665.8 165.4 165.4 0 0 1 334.9 500 165.4 165.4 0 0 1 500 334.2ZM500 400.6C445.5 400.6 401.3 445.1 401.3 500.1 401.3 555.1 445.5 599.4 500 599.4 554.5 599.4 598.8 555.1 598.8 500.1 598.8 445.1 554.5 400.7 500 400.7Z"/></svg>