<svg xmlns="http://www.w3.org/2000/svg"  viewBox="0 0 1000 1000" aria-hidden="true"
style="overflow: hidden;vertical-align: -0.15em;"><path d="M498 182.2A33.3 33.3 0 0 1 498 248.9 250 250 0 1 0 748 498.9 33.3 33.3 0 1 1 814.7 498.9 316.7 316.7 0 1 1 498 182.2ZM624 213.7H749.9L752.5 213.8 755.7 214.2 760.3 215.4 763.2 216.5 767.5 218.7 770.5 220.8 773.5 223.5C774.5 224.5 775.5 225.6 776.4 226.8L778.2 229.5 780.1 232.8 781.5 236.4 782.6 240.6 783.2 246V373A33.3 33.3 0 0 1 716.8 376.9L716.6 373V327.5L584.6 459.5A33.3 33.3 0 0 1 534.7 415.5L537.4 412.4 669.4 280.4H624A33.3 33.3 0 0 1 590.9 250.9L590.6 247A33.3 33.3 0 0 1 620.1 213.9L624 213.7Z"/></svg>