<svg xmlns="http://www.w3.org/2000/svg"  viewBox="0 0 1000 1000" aria-hidden="true"
style="overflow: hidden;vertical-align: -0.15em;"><path d="M234.4 656.3C248.8 656.3 260.4 667.9 260.4 682.3V760.4H739.6V682.3C739.6 667.9 751.3 656.3 765.6 656.3H817.7C832.1 656.3 843.8 667.9 843.8 682.3V812.5C843.8 841.3 820.4 864.6 791.7 864.6H208.3A52.1 52.1 0 0 1 156.3 812.5V682.3C156.3 667.9 167.9 656.3 182.3 656.3H234.4ZM524.8 143.1L720.1 338.4A26.1 26.1 0 0 1 720.1 375.3L683.2 412.1A26.1 26.1 0 0 1 646.4 412.1L552.1 317.8V580C552.1 594.4 540.4 606.1 526.1 606.1H473.9A26.1 26.1 0 0 1 447.9 580V330.4L366.3 412A26.1 26.1 0 0 1 329.4 412L292.6 375.2A26.1 26.1 0 0 1 292.6 338.3L488 143.1A26.1 26.1 0 0 1 524.8 143.1Z"/></svg>